<svg xmlns="http://www.w3.org/2000/svg" width="512.000000pt" height="512.000000pt" viewBox="0 0 512.000000 512.000000" preserveAspectRatio="xMidYMid meet"><g transform="translate(0.000000,512.000000) scale(0.100000,-0.100000)" fill="#000000" stroke="none"><path d="M80 4320 l0 -720 246 0 c193 0 245 -3 241 -12 -122 -273 -160 -386 -202 -592 -13 -65 -25 -119 -27 -120 -2 -2 -24 -10 -50 -20 -74 -27 -130 -77 -169 -147 -31 -59 -34 -71 -34 -149 0 -78 3 -90 34 -149 39 -70 95 -120 169 -147 26 -10 49 -19 50 -20 2 -1 12 -44 22 -96 18 -90 45 -202 56 -232 4 -11 -19 -27 -86 -61 -219 -110 -284 -250 -235 -510 91 -486 411 -902 860 -1120 281 -136 566 -181 709 -111 74 36 136 107 191 216 34 68 50 90 61 86 25 -10 165 -44 229 -56 99 -18 105 -20 105 -33 0 -27 50 -116 84 -151 20 -20 60 -48 89 -63 45 -24 64 -28 137 -28 78 0 90 3 148 34 72 39 115 88 148 169 l23 56 95 17 c306 54 628 190 878 371 l68 48 0 -93 c0 -127 14 -198 60 -293 73 -152 232 -274 394 -303 110 -20 106 -23 106 68 l0 79 -55 7 c-75 9 -183 65 -235 121 -23 25 -56 75 -73 112 l-32 67 0 256 0 255 37 76 c45 91 103 147 196 191 61 29 76 32 163 32 90 0 99 -2 171 -37 91 -45 147 -103 191 -196 l32 -67 3 -382 3 -383 -25 -25 c-33 -33 -79 -33 -111 0 l-25 24 0 352 c0 247 -4 364 -12 393 -16 55 -99 138 -154 154 -94 28 -169 8 -239 -63 -69 -68 -75 -94 -75 -325 0 -231 6 -256 75 -326 59 -59 117 -80 195 -71 l50 6 0 -61 c0 -91 17 -136 75 -193 101 -101 229 -101 331 0 76 75 76 77 72 530 l-3 390 -26 66 c-38 97 -74 154 -141 220 -68 67 -194 135 -271 145 -26 4 -47 10 -47 14 0 3 22 56 49 116 81 181 122 316 177 591 2 13 10 23 17 23 27 0 116 50 151 84 20 20 48 60 63 89 24 45 28 64 28 137 0 78 -3 90 -34 149 -39 72 -98 122 -173 149 -33 11 -50 24 -53 37 -2 11 -11 58 -20 105 -9 47 -18 93 -21 103 -5 15 2 17 47 17 28 0 70 5 93 12 55 16 138 99 154 154 17 59 17 1529 0 1588 -16 55 -99 138 -154 154 -30 9 -164 12 -474 12 -310 0 -444 -3 -474 -12 -55 -16 -138 -99 -154 -154 -8 -26 -12 -111 -12 -232 l0 -190 -110 63 c-190 108 -438 200 -650 240 -129 24 -130 25 -130 38 0 27 -50 116 -84 151 -114 113 -287 126 -418 30 -48 -34 -104 -115 -115 -167 -3 -17 -13 -29 -27 -32 -11 -2 -56 -11 -98 -19 -42 -9 -88 -18 -102 -22 l-26 -6 0 156 0 156 -960 0 -960 0 0 -720z m1568 457 c-51 -57 -181 -201 -288 -320 l-195 -217 -125 0 -125 0 -288 320 -287 320 701 0 701 0 -94 -103z m992 82 c132 -75 89 -279 -62 -296 -57 -7 -109 17 -146 65 -35 47 -38 135 -6 179 54 73 140 94 214 52z m2215 -4 c21 -20 25 -34 25 -80 l0 -55 -480 0 -480 0 0 55 c0 46 4 60 25 80 l24 25 431 0 431 0 24 -25z m-4098 -681 c-1 -1 -118 -78 -259 -173 l-258 -171 0 460 0 461 259 -288 c143 -158 259 -288 258 -289z m1081 -112 l-3 -229 -257 171 -256 171 256 285 257 285 3 -227 c1 -126 1 -331 0 -456z m448 500 c57 -107 176 -170 300 -159 110 11 217 83 258 175 l18 39 76 -14 c259 -47 540 -159 754 -300 l68 -45 0 -465 c0 -328 3 -477 12 -505 15 -49 76 -120 125 -144 34 -17 71 -20 353 -24 l314 -5 22 -90 c38 -163 38 -160 -6 -180 -53 -24 -115 -86 -147 -148 -24 -45 -28 -64 -28 -137 0 -73 4 -92 28 -137 32 -62 94 -124 147 -148 46 -21 46 -17 -5 -220 -43 -169 -85 -282 -159 -429 l-61 -119 -61 -22 c-87 -31 -143 -66 -207 -130 -87 -87 -145 -203 -162 -322 -7 -51 -7 -51 -113 -131 -260 -193 -528 -315 -829 -376 l-118 -24 -21 42 c-30 57 -86 111 -147 144 -45 23 -64 27 -137 27 -73 0 -92 -4 -137 -28 -64 -33 -116 -83 -145 -141 l-23 -44 -117 24 c-64 13 -141 32 -170 41 -49 17 -53 20 -61 59 -11 61 -66 144 -121 185 -55 42 -257 124 -344 141 -119 22 -260 -13 -364 -89 l-62 -46 -35 19 c-46 24 -121 99 -145 145 l-19 37 35 43 c93 115 129 273 93 411 -26 101 -103 278 -140 324 -42 51 -109 93 -174 109 -44 11 -47 15 -64 64 -9 28 -28 105 -41 169 l-24 117 44 23 c58 29 108 81 141 145 24 45 28 64 28 137 0 73 -4 92 -28 138 -33 64 -91 122 -146 146 -47 22 -47 17 4 221 42 166 83 278 154 418 l56 112 622 3 623 2 2 482 3 482 35 9 c31 8 197 45 210 46 3 0 19 -25 36 -57z m2594 -482 l0 -480 -480 0 -480 0 0 480 0 480 480 0 480 0 0 -480z m-3465 -160 l240 -160 -615 0 -615 0 240 160 240 160 135 0 135 0 240 -160z m3465 -535 c0 -46 -4 -60 -25 -80 l-24 -25 -431 0 -431 0 -24 25 c-21 20 -25 34 -25 80 l0 55 480 0 480 0 0 -55z m-4414 -681 c103 -49 125 -175 45 -255 -66 -66 -159 -65 -223 2 -122 128 19 328 178 253z m4320 0 c103 -49 125 -175 45 -255 -66 -66 -159 -65 -223 2 -122 128 19 328 178 253z m-4171 -963 c60 -27 81 -56 132 -182 44 -106 47 -120 47 -199 0 -73 -4 -93 -27 -137 -15 -29 -52 -77 -84 -106 l-56 -55 23 -62 c60 -162 205 -303 362 -356 l49 -16 64 61 c86 83 138 106 240 105 72 0 91 -4 194 -47 126 -51 155 -72 182 -132 30 -65 24 -102 -32 -214 -63 -127 -97 -154 -199 -159 -118 -7 -334 50 -495 130 -190 95 -382 255 -510 427 -156 207 -274 526 -263 711 5 102 32 136 159 199 112 56 149 62 214 32z m3920 -726 c25 -24 25 -26 25 -215 0 -189 0 -191 -25 -215 -32 -33 -78 -33 -110 0 -25 24 -25 26 -25 215 0 189 0 191 25 215 15 16 36 25 55 25 19 0 40 -9 55 -25z m-1909 -471 c103 -49 125 -175 45 -255 -66 -66 -159 -65 -223 2 -122 128 19 328 178 253z"></path><path d="M2480 4000 l0 -240 80 0 80 0 0 240 0 240 -80 0 -80 0 0 -240z"></path><path d="M2405 3590 c-141 -22 -327 -97 -445 -181 -74 -52 -192 -170 -245 -244 -91 -128 -163 -306 -184 -459 -78 -560 306 -1080 864 -1171 563 -92 1098 295 1190 860 77 471 -181 935 -624 1124 -117 50 -223 72 -366 76 -71 2 -157 0 -190 -5z m204 -164 c38 -20 96 -86 125 -145 21 -40 66 -149 66 -158 0 -2 -108 -3 -240 -3 -132 0 -240 1 -240 3 0 9 45 118 65 158 45 88 122 159 173 159 13 0 35 -6 51 -14z m-381 -108 c-17 -33 -41 -91 -53 -127 l-22 -66 -132 -3 c-72 -1 -131 1 -131 6 0 10 69 76 133 127 48 39 202 124 224 125 6 0 -1 -26 -19 -62z m725 26 c101 -50 277 -188 277 -216 0 -5 -59 -7 -131 -6 l-132 3 -21 65 c-12 36 -36 93 -52 128 -17 34 -26 62 -21 62 5 0 41 -16 80 -36z m-843 -401 c0 -10 -4 -47 -9 -83 -5 -36 -12 -100 -16 -142 l-7 -78 -197 0 -198 0 9 58 c10 66 20 102 55 195 l26 67 169 0 c153 0 168 -2 168 -17z m734 0 c6 -23 23 -148 31 -235 l7 -68 -322 0 -322 0 7 68 c8 87 25 212 31 235 5 16 27 17 284 17 257 0 279 -1 284 -17z m514 -20 c28 -55 60 -159 70 -225 l9 -58 -198 0 -197 0 -7 68 c-3 37 -10 103 -15 146 -6 44 -10 85 -10 93 0 10 34 13 165 13 l165 0 18 -37z m-1273 -520 c4 -43 11 -107 16 -143 15 -111 32 -100 -156 -100 l-165 0 -19 38 c-27 53 -59 156 -69 225 l-9 57 198 0 197 0 7 -77z m790 10 c-8 -88 -25 -213 -31 -235 -5 -17 -27 -18 -284 -18 -257 0 -279 1 -284 18 -6 22 -23 147 -31 235 l-7 67 322 0 322 0 -7 -67z m553 10 c-10 -67 -42 -171 -70 -225 l-18 -38 -165 0 c-131 0 -165 3 -165 13 0 8 4 49 10 93 5 43 12 109 15 147 l7 67 197 0 198 0 -9 -57z m-1254 -493 c12 -36 36 -93 52 -127 17 -35 27 -63 22 -63 -20 0 -169 82 -218 120 -67 52 -140 121 -140 132 0 5 59 7 131 6 l132 -3 21 -65z m626 66 c0 -12 -61 -151 -83 -189 -31 -52 -97 -114 -132 -123 -80 -20 -167 67 -236 238 -16 38 -29 72 -29 74 0 2 108 4 240 4 132 0 240 -2 240 -4z m430 -4 c0 -11 -74 -81 -140 -132 -50 -39 -198 -120 -219 -120 -5 0 6 30 24 68 18 37 40 92 50 122 10 30 20 58 22 63 6 10 263 9 263 -1z"></path><path d="M880 2560 l0 -80 240 0 240 0 0 80 0 80 -240 0 -240 0 0 -80z"></path><path d="M3760 2560 l0 -80 240 0 240 0 0 80 0 80 -240 0 -240 0 0 -80z"></path><path d="M2480 1120 l0 -240 80 0 80 0 0 240 0 240 -80 0 -80 0 0 -240z"></path></g></svg>