<svg xmlns="http://www.w3.org/2000/svg" width="512.000000pt" height="512.000000pt" viewBox="0 0 512.000000 512.000000" preserveAspectRatio="xMidYMid meet"><g transform="translate(0.000000,512.000000) scale(0.100000,-0.100000)" fill="#000000" stroke="none"><path d="M1200 5027 c-49 -16 -133 -102 -148 -153 -8 -27 -12 -118 -12 -260 l0 -219 -41 -30 c-23 -16 -89 -80 -148 -140 -476 -491 -586 -1224 -274 -1828 32 -61 59 -115 61 -119 2 -4 -4 -8 -13 -8 -37 0 -96 -45 -201 -152 -127 -130 -151 -173 -141 -261 3 -28 15 -73 26 -99 31 -67 9 -111 -68 -137 -51 -17 -97 -56 -128 -109 -28 -47 -28 -48 -28 -232 0 -184 0 -185 28 -232 33 -57 78 -93 142 -114 37 -13 50 -24 61 -51 13 -31 13 -38 -7 -81 -32 -73 -36 -147 -10 -209 31 -71 236 -273 304 -298 57 -22 130 -16 199 14 67 31 111 9 137 -68 17 -51 56 -97 109 -128 47 -28 48 -28 232 -28 184 0 185 0 232 28 57 33 93 78 114 142 13 37 24 50 51 61 31 13 38 13 81 -6 69 -31 142 -37 199 -15 68 25 273 227 304 298 26 62 22 136 -10 209 -31 67 -9 111 68 137 51 17 97 56 128 109 28 47 28 48 28 233 l0 186 -33 53 c-18 29 -31 53 -30 54 2 1 41 15 88 30 97 31 243 98 332 152 l60 37 136 -136 136 -137 -39 -40 -40 -41 645 -643 c703 -702 684 -685 824 -709 277 -47 526 202 479 479 -24 140 -7 121 -709 824 l-643 645 -41 -40 -40 -39 -137 136 -136 136 36 58 c380 632 294 1415 -214 1939 -59 60 -125 124 -148 140 l-41 30 0 219 c0 139 -4 233 -12 258 -6 22 -31 62 -55 88 -75 84 -31 80 -897 79 -524 -1 -772 -4 -796 -12z m1575 -172 c25 -24 25 -24 25 -240 l0 -215 -800 0 -800 0 0 215 c0 216 0 216 25 240 l24 25 751 0 751 0 24 -25z m25 -855 l0 -240 -800 0 -800 0 0 240 0 240 800 0 800 0 0 -240z m-1825 -118 c-77 -103 -163 -273 -199 -392 -106 -352 -55 -734 139 -1046 l44 -70 -21 -58 c-15 -40 -29 -62 -46 -69 -22 -10 -27 -8 -49 18 -38 47 -119 185 -152 258 -244 544 -137 1159 276 1598 l68 72 3 -112 3 -112 -66 -87z m2178 96 c349 -473 381 -1095 82 -1593 -176 -293 -453 -518 -774 -625 -102 -34 -219 -61 -225 -51 -3 4 4 26 14 49 11 23 22 58 26 78 4 20 12 37 18 39 199 59 293 101 425 189 448 299 656 860 515 1386 -43 162 -112 301 -221 446 l-53 72 0 113 1 114 69 -72 c38 -39 93 -105 123 -145z m-2089 -881 c24 -49 95 -110 144 -125 56 -17 1528 -17 1584 0 49 15 120 76 144 125 17 34 20 70 24 313 l5 275 42 -85 c263 -534 50 -1184 -480 -1465 -81 -44 -248 -105 -284 -105 -10 0 -64 46 -123 105 -123 124 -172 150 -260 142 -30 -3 -76 -15 -101 -26 -59 -26 -101 -15 -121 32 -46 110 -100 166 -180 187 -24 7 -108 10 -206 9 l-165 -3 -24 35 c-14 19 -42 69 -64 111 -155 305 -157 671 -6 978 l42 85 5 -275 c4 -243 7 -279 24 -313z m1736 288 c0 -216 0 -216 -25 -240 l-24 -25 -751 0 -751 0 -24 25 c-25 24 -25 24 -25 240 l0 215 800 0 800 0 0 -215z m-1358 -1084 c13 -11 30 -37 36 -58 16 -53 73 -117 129 -144 62 -30 140 -30 210 1 36 15 61 20 80 15 37 -9 209 -181 218 -218 5 -19 0 -44 -15 -80 -31 -70 -31 -148 -1 -210 27 -56 91 -113 144 -129 69 -21 77 -41 77 -198 0 -157 -8 -177 -77 -198 -53 -16 -117 -73 -144 -129 -30 -62 -30 -140 1 -210 15 -36 20 -61 15 -80 -9 -37 -181 -209 -218 -218 -19 -5 -44 0 -80 15 -70 31 -148 31 -210 1 -56 -27 -113 -91 -129 -144 -21 -69 -41 -77 -198 -77 -157 0 -177 8 -198 77 -16 53 -73 117 -129 144 -62 30 -140 30 -210 -1 -36 -15 -61 -20 -80 -15 -37 9 -209 181 -218 218 -5 19 0 44 15 80 31 70 31 148 1 210 -27 56 -91 113 -144 129 -69 21 -77 41 -77 198 0 157 8 177 77 198 53 16 117 73 144 129 30 62 30 140 -1 210 -15 36 -20 61 -15 80 9 37 181 209 218 218 19 5 44 0 80 -15 70 -31 148 -31 210 -1 56 27 113 91 129 144 21 69 41 77 198 77 121 0 140 -2 162 -19z m1918 -336 l125 -125 -103 -102 -102 -103 -127 127 -128 128 100 100 c55 55 102 100 105 100 3 0 61 -56 130 -125z m902 -742 c317 -318 584 -594 594 -613 26 -49 26 -172 0 -220 -26 -49 -74 -98 -121 -123 -57 -30 -174 -30 -230 0 -23 12 -286 268 -615 597 l-575 576 180 180 c99 99 182 180 185 180 3 0 264 -260 582 -577z"></path><path d="M1360 4640 l0 -80 80 0 80 0 0 80 0 80 -80 0 -80 0 0 -80z"></path><path d="M1680 4640 l0 -80 80 0 80 0 0 80 0 80 -80 0 -80 0 0 -80z"></path><path d="M2000 4640 l0 -80 80 0 80 0 0 80 0 80 -80 0 -80 0 0 -80z"></path><path d="M1840 4000 l0 -80 80 0 80 0 0 80 0 80 -80 0 -80 0 0 -80z"></path><path d="M2160 4000 l0 -80 80 0 80 0 0 80 0 80 -80 0 -80 0 0 -80z"></path><path d="M2480 4000 l0 -80 80 0 80 0 0 80 0 80 -80 0 -80 0 0 -80z"></path><path d="M1360 3360 l0 -80 80 0 80 0 0 80 0 80 -80 0 -80 0 0 -80z"></path><path d="M1680 3360 l0 -80 80 0 80 0 0 80 0 80 -80 0 -80 0 0 -80z"></path><path d="M2000 3360 l0 -80 80 0 80 0 0 80 0 80 -80 0 -80 0 0 -80z"></path><path d="M1155 1990 c-145 -27 -271 -94 -381 -204 -90 -90 -143 -175 -182 -294 -22 -67 -26 -94 -25 -212 0 -119 3 -144 26 -215 38 -115 91 -199 182 -290 91 -91 175 -144 290 -182 71 -23 96 -26 215 -26 119 0 144 3 215 26 115 38 199 91 290 182 91 91 144 175 182 290 23 71 26 96 26 215 0 119 -3 144 -26 215 -38 115 -91 199 -182 290 -139 140 -284 203 -475 210 -58 2 -127 0 -155 -5z m231 -161 c192 -34 363 -189 430 -389 28 -83 26 -244 -4 -332 -60 -174 -192 -303 -372 -364 -76 -26 -244 -26 -320 0 -271 91 -432 344 -392 617 26 180 141 337 305 418 118 58 225 73 353 50z"></path><path d="M1328 1363 l-208 -208 -48 48 c-26 26 -52 47 -58 47 -13 0 -104 -93 -104 -106 0 -5 47 -56 105 -114 l105 -105 265 265 c146 146 265 270 265 275 0 13 -92 105 -105 105 -6 0 -103 -93 -217 -207z"></path><path d="M4585 535 c-50 -49 -15 -135 55 -135 41 0 80 39 80 80 0 41 -39 80 -80 80 -19 0 -40 -9 -55 -25z"></path><path d="M4560 4800 l0 -80 -80 0 -80 0 0 -80 0 -80 80 0 80 0 0 -80 0 -80 80 0 80 0 0 80 0 80 80 0 80 0 0 80 0 80 -80 0 -80 0 0 80 0 80 -80 0 -80 0 0 -80z m160 -160 l0 -80 -80 0 -80 0 0 80 0 80 80 0 80 0 0 -80z"></path><path d="M4000 4240 l0 -80 -80 0 -80 0 0 -80 0 -80 80 0 80 0 0 -80 0 -80 80 0 80 0 0 80 0 80 80 0 80 0 0 80 0 80 -80 0 -80 0 0 80 0 80 -80 0 -80 0 0 -80z m160 -160 l0 -80 -80 0 -80 0 0 80 0 80 80 0 80 0 0 -80z"></path><path d="M4480 2720 l0 -80 -80 0 -80 0 0 -80 0 -80 80 0 80 0 0 -80 0 -80 80 0 80 0 0 80 0 80 80 0 80 0 0 80 0 80 -80 0 -80 0 0 80 0 80 -80 0 -80 0 0 -80z m160 -160 l0 -80 -80 0 -80 0 0 80 0 80 80 0 80 0 0 -80z"></path><path d="M2720 800 l0 -80 -80 0 -80 0 0 -80 0 -80 80 0 80 0 0 -80 0 -80 80 0 80 0 0 80 0 80 80 0 80 0 0 80 0 80 -80 0 -80 0 0 80 0 80 -80 0 -80 0 0 -80z m160 -160 l0 -80 -80 0 -80 0 0 80 0 80 80 0 80 0 0 -80z"></path></g></svg>