<svg xmlns="http://www.w3.org/2000/svg" width="512.000000pt" height="512.000000pt" viewBox="0 0 512.000000 512.000000" preserveAspectRatio="xMidYMid meet"><g transform="translate(0.000000,512.000000) scale(0.100000,-0.100000)" fill="#000000" stroke="none"><path d="M646 5104 c-174 -42 -325 -192 -372 -369 -18 -67 -18 -187 1 -259 9 -33 14 -59 13 -60 -139 -54 -252 -187 -278 -325 -14 -73 -13 -436 1 -463 16 -29 70 -48 139 -48 33 0 60 -1 60 -3 0 -2 -11 -31 -25 -65 -32 -79 -31 -97 4 -133 61 -61 112 -29 169 106 l38 90 542 5 542 5 27 28 28 27 3 167 c4 203 -8 307 -47 388 -35 77 -117 159 -190 194 l-56 26 20 83 20 83 85 49 c106 62 134 92 126 134 -7 35 -48 76 -76 76 -10 0 -49 -16 -86 -35 -37 -19 -70 -35 -73 -35 -3 0 -19 28 -36 63 -40 84 -148 192 -235 233 -112 55 -225 67 -344 38z m262 -189 c74 -34 128 -86 163 -159 67 -141 41 -285 -70 -389 -75 -70 -128 -91 -231 -92 -72 0 -94 4 -142 27 -66 31 -138 102 -170 167 -19 37 -23 63 -23 136 0 76 4 98 27 147 27 59 91 129 143 155 93 49 208 52 303 8z m-471 -696 c97 -89 260 -138 396 -119 109 16 176 45 263 116 54 45 58 46 93 36 61 -19 118 -68 147 -129 27 -54 28 -63 28 -212 l1 -156 -595 0 -595 0 -3 144 c-3 166 8 214 63 278 35 41 104 82 139 83 10 0 39 -18 63 -41z"></path><path d="M4235 5106 c-135 -33 -281 -151 -340 -273 -17 -35 -33 -63 -36 -63 -3 0 -36 16 -73 35 -37 19 -76 35 -86 35 -28 0 -69 -41 -76 -76 -8 -42 20 -72 126 -134 l85 -49 20 -83 20 -83 -56 -26 c-73 -35 -155 -117 -190 -194 -39 -81 -51 -185 -47 -388 l3 -167 28 -27 27 -28 542 -5 542 -5 38 -90 c57 -135 108 -167 169 -106 35 36 36 54 4 133 -14 34 -25 63 -25 65 0 2 27 3 60 3 75 0 127 20 140 55 13 34 13 387 0 456 -26 138 -139 271 -278 325 -1 1 4 27 13 60 19 72 19 192 1 259 -48 180 -199 328 -377 370 -76 17 -165 18 -234 1z m200 -170 c28 -7 64 -20 80 -29 52 -26 116 -96 143 -155 23 -49 27 -71 27 -147 0 -73 -4 -99 -23 -136 -32 -65 -104 -136 -170 -167 -76 -36 -201 -38 -274 -5 -57 26 -143 105 -168 153 -131 261 106 561 385 486z m-449 -687 c15 -24 128 -99 180 -119 177 -66 388 -30 517 89 24 23 52 41 61 41 33 0 107 -44 141 -83 55 -64 66 -112 63 -278 l-3 -144 -595 0 -595 0 1 155 c0 175 12 216 75 279 53 53 138 86 155 60z"></path><path d="M2260 5103 c-81 -9 -262 -44 -350 -67 -114 -30 -146 -57 -136 -115 6 -41 37 -71 71 -71 13 0 79 13 147 30 68 16 175 37 238 46 123 17 155 30 170 70 29 74 -32 120 -140 107z"></path><path d="M2757 5094 c-34 -18 -48 -52 -38 -90 12 -45 46 -61 171 -79 63 -9 170 -29 238 -45 150 -36 166 -37 197 -5 32 31 32 75 3 110 -26 30 -139 63 -323 95 -172 29 -216 32 -248 14z"></path><path d="M1220 3403 c-37 -14 -74 -49 -91 -87 -17 -38 -19 -76 -19 -585 0 -531 1 -546 21 -587 29 -60 77 -88 164 -94 l70 -5 3 -230 c2 -219 3 -230 24 -252 15 -16 33 -23 61 -23 38 0 48 8 296 255 175 174 264 255 279 255 21 0 21 -3 24 -203 l3 -204 29 -37 c50 -66 47 -66 523 -66 l428 0 255 -254 c144 -144 264 -255 275 -256 41 -4 57 1 80 25 l25 24 0 231 0 230 69 0 c54 0 75 5 102 23 48 32 77 80 84 140 4 29 5 282 3 562 -3 569 0 545 -75 602 l-36 28 -414 3 -413 3 0 172 c0 187 -7 230 -47 277 -53 63 -4 60 -895 59 -447 0 -820 -3 -828 -6z m1598 -330 l-3 -168 -331 -5 -331 -5 -37 -29 c-63 -48 -66 -62 -66 -371 l0 -275 -51 0 c-28 0 -60 -5 -72 -11 -12 -6 -104 -93 -204 -192 l-183 -182 0 146 c0 81 -5 160 -11 178 -17 47 -53 61 -159 61 l-90 0 0 510 0 510 770 0 770 0 -2 -167z m932 -852 l0 -509 -101 -4 c-96 -4 -103 -5 -125 -31 -23 -27 -24 -34 -24 -195 l0 -167 -187 187 c-104 103 -201 192 -216 198 -18 6 -181 10 -453 10 l-424 0 0 510 0 510 765 0 765 0 0 -509z"></path><path d="M2415 2445 c-50 -49 -19 -126 56 -140 19 -3 150 -5 292 -3 l259 3 24 28 c31 37 31 81 -1 112 l-24 25 -291 0 -291 0 -24 -25z"></path><path d="M3278 2456 c-30 -22 -40 -63 -24 -100 19 -46 63 -59 182 -54 81 3 97 7 119 28 33 31 35 88 2 118 -21 20 -34 22 -143 22 -82 -1 -124 -5 -136 -14z"></path><path d="M2415 2104 c-32 -34 -32 -75 -1 -111 24 -28 25 -28 146 -28 121 0 122 0 146 28 31 36 31 77 -1 111 -23 25 -27 26 -145 26 -118 0 -122 -1 -145 -26z"></path><path d="M2932 2110 c-47 -44 -36 -111 24 -136 29 -12 83 -14 304 -12 l268 3 26 24 c35 33 35 83 1 116 l-24 25 -289 0 c-276 0 -289 -1 -310 -20z"></path><path d="M40 2852 c-26 -27 -28 -35 -35 -147 -9 -134 0 -327 21 -490 12 -96 17 -113 39 -132 33 -29 74 -29 110 -1 31 24 31 18 5 308 -7 75 -9 189 -5 282 l6 158 -25 25 c-35 34 -79 33 -116 -3z"></path><path d="M4979 2865 c-15 -8 -30 -22 -33 -32 -4 -9 -4 -80 -1 -158 4 -82 2 -197 -5 -280 -25 -302 -25 -283 0 -310 31 -33 88 -34 118 -2 17 18 25 47 36 133 21 160 30 354 21 489 -7 112 -9 120 -35 147 -31 31 -61 35 -101 13z"></path><path d="M259 1571 c-16 -16 -29 -38 -29 -49 0 -10 23 -65 51 -122 l50 -104 -25 -55 c-13 -31 -29 -74 -35 -96 -16 -58 -13 -194 4 -251 8 -27 15 -52 15 -55 0 -4 -25 -19 -56 -35 -67 -34 -142 -106 -178 -171 -46 -81 -56 -148 -56 -371 l0 -204 29 -29 29 -29 707 0 c487 0 713 3 727 11 29 16 48 70 48 139 0 33 1 60 3 60 2 0 31 -11 65 -25 79 -32 97 -31 133 4 61 61 29 112 -106 169 l-90 38 -8 49 c-29 180 -107 296 -241 362 l-54 26 14 41 c57 161 5 375 -123 503 -123 123 -267 173 -434 152 -72 -9 -184 -53 -221 -86 -22 -19 -18 -23 -57 54 -17 34 -41 71 -53 83 -32 29 -74 26 -109 -9z m656 -241 c67 -32 131 -99 163 -168 37 -80 38 -193 1 -272 -32 -69 -99 -139 -164 -170 -73 -36 -189 -40 -269 -9 -82 30 -166 113 -195 192 -28 77 -28 168 1 244 28 77 112 161 188 191 78 31 204 27 275 -8z m-477 -696 c129 -105 281 -145 434 -113 74 16 171 65 229 117 l50 44 46 -17 c59 -23 116 -75 143 -131 20 -39 22 -63 24 -202 l1 -157 -598 -3 -599 -2 4 162 c3 157 4 165 31 213 37 67 105 119 175 134 2 1 29 -20 60 -45z"></path><path d="M4752 1580 c-12 -12 -36 -49 -53 -83 -39 -77 -35 -73 -57 -54 -9 9 -47 30 -83 46 -110 52 -258 59 -377 17 -164 -58 -301 -218 -333 -391 -13 -69 -6 -183 15 -241 l14 -41 -54 -26 c-134 -66 -212 -182 -241 -362 l-8 -49 -90 -38 c-135 -57 -167 -108 -106 -169 36 -35 54 -36 133 -4 34 14 63 25 65 25 2 0 3 -27 3 -60 0 -69 19 -123 48 -139 14 -8 240 -11 727 -11 l707 0 29 29 29 29 0 204 c0 223 -10 290 -56 371 -36 65 -111 137 -178 171 -31 16 -56 31 -56 35 0 3 7 28 15 55 17 57 20 193 4 251 -6 22 -22 65 -35 96 l-25 55 50 104 c28 57 51 112 51 122 0 11 -13 33 -29 49 -35 35 -77 38 -109 9z m-275 -242 c79 -29 162 -112 191 -191 29 -76 29 -167 1 -244 -29 -79 -113 -162 -195 -192 -80 -31 -196 -27 -269 9 -65 31 -132 101 -164 170 -34 74 -36 191 -4 262 42 93 113 161 201 193 59 22 172 19 239 -7z m-457 -701 c57 -51 154 -101 228 -116 153 -32 305 8 434 113 l56 46 41 -15 c61 -21 104 -58 137 -117 28 -51 29 -58 32 -216 l4 -162 -599 2 -598 3 1 145 c2 170 11 211 61 269 31 37 118 91 147 91 4 0 30 -19 56 -43z"></path><path d="M2225 178 c-51 -29 -61 -93 -21 -133 31 -31 109 -40 356 -40 247 0 325 9 356 40 34 34 32 79 -5 116 l-30 29 -88 -7 c-111 -10 -351 -10 -463 -1 -58 5 -91 4 -105 -4z"></path></g></svg>